<?xml version="1.0" encoding="UTF-8"?>
<svg id="Layer_2" data-name="Layer 2" xmlns="http://www.w3.org/2000/svg" viewBox="0 0 500 500">
  <defs>
    <style>
      .cls-1 {
        fill: #f0f0f0;
      }

      .cls-2, .cls-3, .cls-4 {
        fill: #fff;
      }

      .cls-5 {
        fill: #37474f;
      }

      .cls-6 {
        fill: #f5f5f5;
      }

      .cls-7 {
        fill: #455a64;
      }

      .cls-8 {
        fill: #f28f8f;
      }

      .cls-9 {
        fill: #e0e0e0;
      }

      .cls-10 {
        opacity: .3;
      }

      .cls-10, .cls-11, .cls-3, .cls-12, .cls-4 {
        isolation: isolate;
      }

      .cls-11, .cls-4 {
        opacity: .2;
      }

      .cls-3 {
        opacity: .7;
      }

      .cls-13 {
        fill: #ebebeb;
      }

      .cls-14 {
        fill: #00bf63;
      }

      .cls-12 {
        opacity: .1;
      }

      .cls-15 {
        fill: #263238;
      }

      .cls-16 {
        fill: #ffa8a7;
      }
    </style>
  </defs>
  <g id="freepik--Floor--inject-39">
    <path class="cls-6" d="M80.29,442.93c93.73,44.67,245.69,44.68,339.42,0,93.73-44.68,93.72-117.1,0-161.76-93.72-44.67-245.69-44.67-339.42,0-93.73,44.67-93.72,117.1,0,161.76Z"/>
  </g>
  <g id="freepik--Shadow--inject-39">
    <ellipse class="cls-13" cx="419.38" cy="395.03" rx="31.26" ry="14.89"/>
  </g>
  <g id="freepik--Plants--inject-39">
    <path class="cls-14" d="M73.18,397.16l11.06-6.38c6.17-5.04,10.87-11.65,13.6-19.14,3.41-9.41,2.94-16.57,.49-20.16-3.01-4.42-10.8-3.65-11.11,5.66-.65,18.34-6,31.05-14.04,40.02Z"/>
    <path class="cls-11" d="M73.18,397.16l11.06-6.38c6.17-5.04,10.87-11.65,13.6-19.14,3.41-9.41,2.94-16.57,.49-20.16-3.01-4.42-10.8-3.65-11.11,5.66-.65,18.34-6,31.05-14.04,40.02Z"/>
    <path class="cls-2" d="M73.18,397.84c-.38,0-.68-.31-.67-.69,0-.22,.11-.42,.29-.55,25.57-17.68,20.62-42.34,20.57-42.59-.08-.38,.16-.74,.54-.82,.38-.08,.74,.16,.82,.54,0,.26,5.22,25.76-21.11,43.99-.13,.09-.28,.13-.44,.12Z"/>
    <path class="cls-14" d="M51.02,409.96s-3.85-3.13-2.92-7.37,3.41-7.29-.84-12.76c-4.26-5.47-5.44-12.76-.35-16.7,3.88-3.06,9.93,1.26,12.11-6.8,1.6-5.9,1.06-18.97,8.58-23.33s12.24,2.2,11.06,11.07c-1.03,7.93-2.5,15.56-1.36,17.68,2.2,4.08,5.97,3.52,5.79,10.98-.15,6.94-6.72,12.68-6.72,12.68l-25.34,14.55Z"/>
    <path class="cls-2" d="M63.66,403.31c-.34,0-.63-.26-.68-.6-1.95-16.12,2.72-43.95,6.53-52.22,.12-.35,.51-.54,.87-.42,.03,.01,.06,.02,.09,.04,.34,.15,.49,.55,.33,.88,0,0,0,.01,0,.02-3.77,8.16-8.27,36.07-6.41,51.48,.04,.37-.23,.71-.6,.75l-.12,.07Z"/>
    <path class="cls-2" d="M63.29,390.76c-.1,0-.21-.02-.3-.07-4.72-2.3-7.71-10.5-7.83-10.88-.14-.35,.03-.74,.38-.88,.35-.14,.74,.03,.88,.38,0,.01,0,.02,.01,.04,0,.08,2.92,8.02,7.15,10.08,.34,.16,.48,.57,.32,.91-.11,.24-.35,.38-.61,.38v.04Z"/>
    <path class="cls-2" d="M63.21,396.2c-.28,0-.53-.17-.63-.44-.14-.35,.02-.74,.37-.88,7.94-3.18,12.89-12.64,12.95-12.74,.17-.33,.58-.47,.92-.29,.33,.17,.47,.58,.29,.92-.22,.41-5.24,10.01-13.6,13.38-.09,.04-.2,.06-.3,.05Z"/>
    <path class="cls-14" d="M340.86,323.02s-5.94-9.63-6.53-20.09c-.58-10.46,1.71-14.81,4.87-16.06s3.4,2.6,5.02,4.87,4.92,.98,6.15-6.11,5.69-19.04,14.96-21.37c10.2-2.53,4.73,9.44,2.16,14.1s-4.56,11.03-2.87,12.76,4.31-1.47,6.8,1.5c3.03,3.58-6.39,16.46-11.81,19.57l-18.76,10.83Z"/>
    <path class="cls-2" d="M349.01,318.98h0c-.38-.01-.67-.33-.65-.71,0,0,0,0,0,0,.92-16.83,6.17-33.13,15.23-47.33,.21-.3,.63-.38,.93-.17,0,0,.02,.01,.02,.02,.3,.22,.36,.64,.15,.94-8.9,14-14.06,30.05-14.96,46.61-.02,.37-.34,.66-.72,.64,0,0,0,0,0,0Z"/>
    <path class="cls-2" d="M349.78,310.94c-.11,0-.23-.03-.33-.08-3.81-2.11-5.92-8.37-6-8.62-.13-.35,.06-.74,.41-.87,0,0,0,0,0,0,.36-.12,.74,.08,.86,.44,0,0,2.04,6.03,5.44,7.86,.32,.19,.43,.6,.26,.92-.13,.24-.38,.38-.65,.35Z"/>
    <path class="cls-2" d="M350.45,306.82c-.31,0-.58-.22-.65-.52-.09-.36,.12-.72,.48-.81,0,0,0,0,.01,0,9.82-2.49,13.22-7.63,13.25-7.68,.2-.32,.63-.41,.95-.21s.41,.63,.21,.95h0c-.15,.23-3.69,5.63-14.06,8.27h-.18Z"/>
    <path class="cls-14" d="M192.87,301.89s-13.04-3.18-13.72-27.61c-.72-26.36,3.2-57.13-12.24-59.62s-24.01,16.32-23.82,38.29c.18,19.23,7.93,60.99,49.73,69.18l.05-20.24Z"/>
    <path class="cls-11" d="M192.87,301.89s-13.04-3.18-13.72-27.61c-.72-26.36,3.2-57.13-12.24-59.62s-24.01,16.32-23.82,38.29c.18,19.23,7.93,60.99,49.73,69.18l.05-20.24Z"/>
    <path class="cls-2" d="M192.87,319.62h-.12c-9.4-1.71-17.06-6.9-22.76-15.38-16.89-25.2-11.58-72.27-9.82-80.48,.08-.36,.44-.6,.8-.53,.37,.09,.6,.45,.53,.82-1.73,8.16-7.02,54.62,9.62,79.43,4.9,7.78,12.83,13.15,21.87,14.8,.37,.07,.61,.42,.55,.79,0,0,0,0,0,.01-.06,.32-.34,.55-.67,.54Z"/>
    <path class="cls-14" d="M192.87,382.31c-13.48,1.82-35.36,1.8-48-8.16-12.64-9.96-10-18.53-5.14-22.1s9.07-7.66,.72-15.6-21.76-20.7-26.12-39.84-2.2-31.11,6.34-35.09c8.28-3.86,10.47,2.29,15.55,14.96s16.49,1.81,26.25,5.77,9.37,11.79,9.98,18.53,3.84,8.6,9.37,8.6,11.04,3.18,11.04,9.52v63.42Z"/>
    <path class="cls-2" d="M192.87,360.09c-.06,.01-.12,.01-.18,0-.58-.16-14.53-4.22-34.83-22.86-21.63-19.86-31.83-49.65-31.94-49.95-.11-.36,.08-.73,.44-.86,.35-.12,.73,.07,.86,.42,.1,.3,10.2,29.76,31.57,49.37,20.02,18.4,34.13,22.52,34.28,22.57,.36,.11,.57,.48,.46,.84-.09,.28-.36,.47-.65,.46Z"/>
    <path class="cls-2" d="M163.53,341.96c-.28,0-.53-.17-.63-.44-4.37-11.21-5.36-35.19-5.44-36.21,0-.37,.28-.69,.65-.71,.37,0,.67,.29,.71,.65,0,.24,1.02,24.77,5.3,35.77,.14,.35-.04,.74-.39,.88,0,0,0,0,0,0-.07,.02-.13,.04-.2,.04Z"/>
    <path class="cls-2" d="M163.43,358.07c-1.25,0-2.51-.05-3.75-.19-.38-.05-.64-.39-.6-.76s.39-.64,.76-.6c.12,0,12.79,1.44,18.59-4.47,.24-.29,.67-.32,.96-.08,.29,.24,.32,.67,.08,.96-.02,.03-.05,.05-.07,.07-4.2,4.34-11.53,5.07-15.97,5.07Z"/>
  </g>
  <g id="freepik--Gear--inject-39">
    <path class="cls-9" d="M153.63,100.51l-1.47-8.47-7.56,4.98c-.69-1.36-1.67-2.55-2.87-3.5l3.62-9.79-6.8-1.51-4.98,9.52c-1.8,.3-3.55,.87-5.18,1.69l-2.16-7.18-8.08,6.35,.53,8.43c-1.65,1.84-3.14,3.82-4.46,5.9l-6.66-.34-4.68,10.49,5.73,2.45c-.6,2.17-.98,4.39-1.13,6.64l-7.28,6.69,1.46,8.49,7.58-4.98c.69,1.36,1.67,2.55,2.87,3.48l-3.55,9.81,6.8,1.5,7.13-6.94c1.65-.26,1.24-3.36,3.03-4.24l2.16,7.15,8.07-6.34-.2-3.32c1.63-1.82,7.81-5.84,9.14-7.93l1.67-2.72,4.68-10.49-2.18-3.94-2.42-5.14,7.21-6.73Zm-24.69,27.9c-6.2,4.87-8.16,5.94-9.21-.57s2.5-16.42,8.71-21.3,8.57-5.22,9.68,1.28-2.97,15.78-9.18,20.59Z"/>
    <polygon class="cls-6" points="138.6 82.22 147.43 87.3 142.45 96.8 133.62 91.71 138.6 82.22"/>
    <polygon class="cls-6" points="160.99 97.13 153.43 102.1 144.6 97.02 152.16 92.04 160.99 97.13"/>
    <polygon class="cls-9" points="159.78 121.38 154.05 118.94 145.23 113.86 150.95 116.29 159.78 121.38"/>
    <polygon class="cls-9" points="108.53 149.66 117.36 154.73 120.97 144.94 112.15 139.85 108.53 149.66"/>
    <polygon class="cls-9" points="136.41 152.21 127.6 147.13 125.44 139.97 134.26 145.06 136.41 152.21"/>
    <path class="cls-13" d="M162.45,105.6l-1.46-8.47-7.56,4.98c-.7-1.36-1.68-2.55-2.88-3.5l3.62-9.79-6.73-1.51-4.99,9.52c-1.8,.3-3.55,.87-5.18,1.69l-2.15-7.15-8.08,6.35,.53,8.43c-1.65,1.86-3.14,3.84-4.46,5.94l-6.68-.34-4.68,10.49,5.73,2.45c-.59,2.17-.97,4.4-1.13,6.65l-7.26,6.6,1.46,8.49,7.56-4.98c.7,1.36,1.68,2.55,2.88,3.48l-3.62,9.79,6.8,1.51,4.98-9.52c1.81-.3,3.56-.87,5.2-1.7l2.15,7.15,8.08-6.34-.53-8.43c1.65-1.84,3.14-3.82,4.46-5.9l6.68,.33,4.68-10.49-5.81-2.43c.6-2.17,.98-4.4,1.14-6.65l7.26-6.64Zm-24.66,27.95c-6.19,4.87-12.12,3.55-13.25-2.95s2.99-15.74,9.19-20.61,12.12-3.54,13.25,2.97-2.99,15.72-9.19,20.59Z"/>
    <polygon class="cls-6" points="135.11 91.33 126.28 86.24 118.2 92.6 127.03 97.68 135.11 91.33"/>
    <polygon class="cls-9" points="118.2 92.6 118.73 101.03 127.56 106.12 127.03 97.68 118.2 92.6"/>
    <polygon class="cls-6" points="123.1 112.02 114.27 106.93 107.6 106.61 116.42 111.69 123.1 112.02"/>
    <polygon class="cls-9" points="107.6 106.61 102.93 117.08 111.74 122.17 116.42 111.69 107.6 106.61"/>
    <polygon class="cls-6" points="116.34 131.25 107.52 126.16 100.25 132.86 109.06 137.94 116.34 131.25"/>
    <polygon class="cls-9" points="110.53 146.43 101.7 141.34 100.25 132.86 109.06 137.94 110.53 146.43"/>
    <polygon class="cls-6" points="147.43 87.3 138.6 82.22 145.35 83.73 154.16 88.81 147.43 87.3"/>
    <path class="cls-9" d="M114.11,62.05v-12.66l-10.08,4.54c-.53-2.15-1.46-4.18-2.72-6l6.35-12.8-7.75-4.47-7.92,11.9c-2.21-.19-4.43,.02-6.56,.64l-1.12-11-10.96,6.34-1.1,12.24c-2.39,2.11-4.58,4.44-6.56,6.94l-7.92-2.72-7.75,13.44,6.34,5.44c-1.17,2.96-2.08,6.02-2.72,9.14l-10.08,7.09v12.68l10.08-4.54c.53,2.15,1.46,4.18,2.72,6l-6.31,12.81,7.75,4.47,7.92-11.9c2.21,.19,4.43-.02,6.56-.64l1.1,11,10.96-6.34,1.12-12.24c3.42-1.25,6.45-3.38,8.79-6.18l5.69,2,7.75-13.42-4.76-4.08c1.03-3.4,1.42-6.97,1.13-10.51l10.05-7.15Zm-35.27,31.64c-8.41,4.86-13.6,1.36-13.6-8.31s6.95-21.63,15.37-26.48c8.42-4.86,13.51-1.36,13.51,8.39s-6.86,21.53-15.27,26.4Z"/>
    <polygon class="cls-6" points="108.72 35.73 99.91 30.65 91.99 42.56 100.8 47.64 108.72 35.73"/>
    <polygon class="cls-6" points="122.93 54.47 114.11 49.38 104.03 53.93 112.85 59.01 122.93 54.47"/>
    <polygon class="cls-9" points="82.17 125.06 73.35 119.98 72.25 108.97 81.07 114.06 82.17 125.06"/>
    <polygon class="cls-9" points="50.01 117.04 58.84 122.13 65.19 109.33 56.37 104.24 50.01 117.04"/>
    <path class="cls-13" d="M122.93,67.2v-12.66l-10.08,4.5c-.53-2.15-1.45-4.18-2.72-6l6.35-12.8-7.75-4.49-7.92,11.92c-2.21-.2-4.43,.02-6.56,.64l-1.12-11.03-10.96,6.34-1.12,12.24c-2.38,2.12-4.58,4.44-6.56,6.94l-7.92-2.72-7.75,13.44,6.35,5.44c-1.18,2.96-2.09,6.02-2.72,9.14l-10.08,7.09v12.68l10.08-4.54c.53,2.15,1.45,4.18,2.72,6l-6.35,12.8,7.75,4.47,7.92-11.9c2.21,.19,4.43-.02,6.56-.64l1.12,11,10.96-6.34,1.1-12.24c2.39-2.11,4.58-4.44,6.56-6.94l7.92,2.72,7.75-13.42-6.35-5.44c1.18-2.96,2.09-6.02,2.72-9.14l10.09-7.05Zm-35.27,31.64c-8.42,4.86-15.25,.91-15.25-8.8s6.8-21.53,15.25-26.4c8.45-4.87,15.23-.91,15.23,8.8s-6.83,21.46-15.23,26.33v.07Z"/>
    <polygon class="cls-1" points="65.7 57.73 74.51 62.82 66.59 60.06 57.78 54.96 65.7 57.73"/>
    <rect class="cls-6" x="50.56" y="59.15" width="15.52" height="10.19" transform="translate(-26.47 82.65) rotate(-60.02)"/>
    <polygon class="cls-9" points="50.01 68.4 58.84 73.49 65.19 78.95 56.37 73.88 50.01 68.4"/>
    <polygon class="cls-6" points="53.65 83.02 62.47 88.11 52.39 95.19 43.57 90.11 53.65 83.02"/>
    <polygon class="cls-9" points="43.57 90.11 52.39 95.19 52.39 107.87 43.57 102.78 43.57 90.11"/>
    <polygon class="cls-6" points="93.15 37.28 84.32 32.19 73.35 38.53 82.17 43.62 93.15 37.28"/>
  </g>
  <g id="freepik--Device--inject-39">
    <path class="cls-9" d="M206.31,400.51l127.86-73.83c.75-.26,1.15-1.09,.88-1.84-.15-.41-.47-.74-.88-.88l-11.82-6.8c-1.48-.75-3.24-.75-4.72,0l-127.9,73.76c-.75,.26-1.15,1.09-.88,1.84,.15,.41,.47,.74,.88,.88l11.86,6.8c1.47,.77,3.22,.79,4.72,.07Z"/>
    <path class="cls-7" d="M330.66,41.63l-115.29,66.57c-3.48,2.27-5.66,6.06-5.89,10.2V391.89c0,3.75,2.64,5.28,5.89,3.4l115.29-66.57c3.48-2.26,5.67-6.06,5.89-10.2V45.03c0-3.75-2.63-5.28-5.89-3.4Z"/>
    <path class="cls-5" d="M215.37,108.2l115.29-66.57c2.91-1.69,5.32-.64,5.81,2.29-.55-3.72-2.66-7.03-5.81-9.09l-4.79-2.72c-3.7-1.88-8.08-1.88-11.78,0l-115.3,66.51c-1.74,1.09-3.17,2.6-4.16,4.39l16.58,9.52c.99-1.78,2.43-3.27,4.16-4.34Z"/>
    <path class="cls-15" d="M192.87,382.31c.23,4.14,2.41,7.93,5.89,10.2l4.8,2.72c3.36,1.68,7.28,1.85,10.77,.46-2.72,1.06-4.88-.5-4.88-3.86V118.4c.07-2.05,.66-4.05,1.73-5.81l-16.58-9.52c-1.05,1.74-1.64,3.72-1.73,5.75V382.31Z"/>
    <path class="cls-2" d="M218.54,144.64l108.99-62.91c1.96-1.12,3.54-.2,3.54,2.04v202.42c-.13,2.49-1.45,4.76-3.54,6.12l-108.95,62.91c-1.96,1.13-3.54,.22-3.54-2.04V150.76c.13-2.48,1.42-4.75,3.5-6.12Z"/>
    <path class="cls-5" d="M273.01,85.28c-1.22,.8-1.99,2.13-2.07,3.59,0,1.36,.92,1.86,2.07,1.2,1.22-.8,1.99-2.13,2.07-3.59,0-1.32-.92-1.85-2.07-1.2Z"/>
    <path class="cls-5" d="M273.01,333.44c-4.82,3.15-7.85,8.42-8.16,14.17,0,5.21,3.66,7.33,8.16,4.72,4.82-3.16,7.85-8.42,8.16-14.17,.03-5.21-3.65-7.33-8.16-4.72Z"/>
    <path class="cls-5" d="M253.44,106.33c-2.42,1.61-3.94,4.28-4.08,7.18,0,2.64,1.85,3.71,4.08,2.39,2.45-1.59,3.99-4.26,4.15-7.18,0-2.64-1.85-3.71-4.15-2.39Z"/>
    <path class="cls-5" d="M263.6,105.44c0,1.77,1.36,2.43,2.95,1.5l27.2-15.74c1.71-1.07,2.81-2.89,2.95-4.9,0-1.75-1.36-2.42-2.95-1.48l-27.2,15.74c-1.71,1.06-2.8,2.88-2.95,4.88Z"/>
    <path class="cls-5" d="M202.07,153.4c1.96,1.28,3.19,3.41,3.32,5.74,0,2.12-1.48,2.98-3.32,1.92-1.95-1.28-3.18-3.41-3.31-5.74,0-2.11,1.48-2.97,3.31-1.92Z"/>
    <path class="cls-5" d="M202.07,178.94c1.96,1.28,3.19,3.41,3.32,5.74,0,2.11-1.48,2.97-3.32,1.92-1.95-1.28-3.18-3.41-3.31-5.74,0-2.12,1.48-2.98,3.31-1.92Z"/>
    <path class="cls-7" d="M201.03,153.91c1.96,1.28,3.19,3.41,3.32,5.74,0,2.11-1.48,2.97-3.32,1.92-1.96-1.28-3.19-3.41-3.32-5.74,.01-2.12,1.5-2.94,3.32-1.92Z"/>
    <path class="cls-7" d="M201.03,179.44c1.96,1.28,3.19,3.42,3.32,5.75,0,2.11-1.48,2.97-3.32,1.9-1.96-1.27-3.2-3.41-3.32-5.74,.01-2.11,1.5-2.97,3.32-1.92Z"/>
    <path class="cls-2" d="M353.13,90.17c0-2.26-1.58-3.17-3.54-2.04l-13.04,7.52-95.91,55.39c-2.09,1.36-3.4,3.63-3.54,6.12v202.37c0,2.26,1.58,3.17,3.54,2.04l95.95-55.4,13-7.51c2.09-1.36,3.4-3.63,3.54-6.12V90.17Z"/>
    <path class="cls-14" d="M354.49,90.17c.24-1.92-1.12-3.66-3.03-3.9-.9-.11-1.82,.13-2.54,.68l-12.45,7.2h0l-96.5,55.77c-2.52,1.59-4.1,4.32-4.22,7.3v202.31c-.11,1.38,.55,2.72,1.71,3.47,.49,.28,1.04,.43,1.6,.42,.8-.02,1.57-.25,2.26-.67l96.57-55.77h0l12.42-7.17c2.51-1.61,4.08-4.33,4.22-7.3l-.04-202.34Zm-18,214.48h0l-1.12,.65h0l-95.36,55.06c-.32,.25-.74,.34-1.14,.24-.18-.11-.35-.49-.35-1.12V157.16c.14-2,1.2-3.83,2.86-4.95l95.27-55.09h0l13.6-7.88c.32-.25,.74-.34,1.14-.24,.18,.11,.35,.49,.35,1.12v202.42c-.14,2-1.2,3.83-2.86,4.95l-12.42,7.17h.03Z"/>
    <path class="cls-14" d="M295.12,137.2c12.24-7.05,22.1-1.36,22.1,12.77s-9.9,31.28-22.1,38.28c-12.2,6.99-22.1,1.36-22.1-12.76s9.9-31.23,22.1-38.29Z"/>
    <path class="cls-14" d="M295.12,148.29c3.96-2.29,7.17-.44,7.17,4.08-.27,5.05-2.94,9.66-7.17,12.42-3.96,2.29-7.17,.44-7.17-4.08,.27-5.05,2.94-9.66,7.17-12.42Z"/>
    <path class="cls-14" d="M309.09,172.67c0-7.51-5.26-10.55-11.78-6.8l-4.08,2.35c-6.5,3.75-11.78,12.89-11.78,20.4v2.03c3.77,1.24,8.5,.57,13.6-2.41,5.65-3.49,10.43-8.22,13.97-13.83l.07-1.74Z"/>
    <path class="cls-3" d="M295.12,148.29c3.96-2.29,7.17-.44,7.17,4.08-.27,5.05-2.94,9.66-7.17,12.42-3.96,2.29-7.17,.44-7.17-4.08,.27-5.05,2.94-9.66,7.17-12.42Z"/>
    <path class="cls-3" d="M309.09,172.67c0-7.51-5.26-10.55-11.78-6.8l-4.08,2.35c-6.5,3.75-11.78,12.89-11.78,20.4v2.03c3.77,1.24,8.5,.57,13.6-2.41,5.65-3.49,10.43-8.22,13.97-13.83l.07-1.74Z"/>
    <path class="cls-14" d="M252.35,219.32l28.44-16.42c1.36-.75,2.35-.15,2.35,1.36v.94c-.09,1.66-.96,3.17-2.35,4.08l-28.44,16.42c-1.29,.75-2.35,.14-2.35-1.36v-.94c.09-1.66,.96-3.17,2.35-4.08Z"/>
    <path class="cls-12" d="M252.35,219.32l28.44-16.42c1.36-.75,2.35-.15,2.35,1.36v.94c-.09,1.66-.96,3.17-2.35,4.08l-28.44,16.42c-1.29,.75-2.35,.14-2.35-1.36v-.94c.09-1.66,.96-3.17,2.35-4.08Z"/>
    <path class="cls-14" d="M251.18,239.14l86.04-49.67c.64-.38,1.17-.08,1.17,.68v10.04c-.05,.83-.48,1.58-1.17,2.04l-86.04,49.67c-.65,.38-1.18,.07-1.18-.68v-10.04c.05-.83,.49-1.59,1.18-2.04Z"/>
    <path class="cls-4" d="M251.18,239.14l86.04-49.67c.64-.38,1.17-.08,1.17,.68v10.04c-.05,.83-.48,1.58-1.17,2.04l-86.04,49.67c-.65,.38-1.18,.07-1.18-.68v-10.04c.05-.83,.49-1.59,1.18-2.04Z"/>
    <path class="cls-14" d="M252.35,263.98l28.44-16.42c1.36-.75,2.35-.14,2.35,1.36v.94c-.09,1.66-.96,3.18-2.35,4.08l-28.44,16.42c-1.29,.76-2.35,.15-2.35-1.36v-.94c.09-1.66,.97-3.17,2.35-4.08Z"/>
    <path class="cls-12" d="M252.35,263.98l28.44-16.42c1.36-.75,2.35-.14,2.35,1.36v.94c-.09,1.66-.96,3.18-2.35,4.08l-28.44,16.42c-1.29,.76-2.35,.15-2.35-1.36v-.94c.09-1.66,.97-3.17,2.35-4.08Z"/>
    <path class="cls-14" d="M251.18,283.79l86.04-49.67c.64-.38,1.17-.07,1.17,.68v10.04c-.05,.83-.48,1.58-1.17,2.04l-86.04,49.67c-.65,.38-1.18,.08-1.18-.68v-10.04c.05-.83,.49-1.59,1.18-2.04Z"/>
    <path class="cls-4" d="M251.18,283.79l86.04-49.67c.64-.38,1.17-.07,1.17,.68v10.04c-.05,.83-.48,1.58-1.17,2.04l-86.04,49.67c-.65,.38-1.18,.08-1.18-.68v-10.04c.05-.83,.49-1.59,1.18-2.04Z"/>
    <path class="cls-14" d="M285.5,289.49l34-19.6c1.36-.76,2.37-.15,2.37,1.36v10.5c-.09,1.66-.97,3.18-2.37,4.08l-34,19.61c-1.36,.75-2.35,.14-2.35-1.36v-10.51c.1-1.66,.97-3.17,2.35-4.08Z"/>
    <path class="cls-12" d="M285.5,289.49l34-19.6c1.36-.76,2.37-.15,2.37,1.36v10.5c-.09,1.66-.97,3.18-2.37,4.08l-34,19.61c-1.36,.75-2.35,.14-2.35-1.36v-10.51c.1-1.66,.97-3.17,2.35-4.08Z"/>
  </g>
  <g id="freepik--Character--inject-39">
    <path class="cls-16" d="M366.02,245.18s-16.7-23.04-17.68-25.84c-.78-2.07,0-5.14,.24-6.57s.46-4.61,.71-5.44c.41-1.55-1.59-1.24-2.72,.18s-1.51,4.24-2.09,4.71-5.03-6.03-7.36-9.02-3.78-4.81-5.21-3.7c-1.02,.8-.26,2.54,1.43,5.1,.99,1.38,1.89,2.81,2.72,4.28,.26,.56-1.13,.6-1.88,1.75-.58,.9,0,2.35-.82,3.05-1.04,.79-1.32,2.24-.65,3.36,1.51,2.38,3.47,4.45,5.75,6.09,2.5,1.73,3.51,2.34,4.99,4.69s14.79,26.39,15.68,27.83,2.63,4.38,5.25,4.46,24.12-18.42,25.22-19.34c3.54-2.95,4.67-3.37,5.26-.72,.21,.94,.36,1.9,.46,2.86,.42,3.37,2.72,15.42,2.72,15.42,0,0,10.88,5.26,19.82,2.72s11.96-6.34,11.96-6.34l-4.47-7.29c1.21-3.01,6.8-15.19,8.61-23.72l-28.02-4.53c-.57-.12-1.5-.35-2.72-.67-1.54-.41-5.44-1.75-8.39,.83-9.63,8.39-28.78,25.84-28.78,25.84"/>
    <path class="cls-5" d="M421.57,386.56l-5.02,6.98c2.28,1.06,4.77,1.6,7.29,1.56,4.5,.16,5.74-1.36,5.9-1.66,.76-1.63-.42-4.57-.75-7.1l-7.43,.22Z"/>
    <path class="cls-5" d="M416.84,390.19s-6.09-.39-10.3-.91-7.54,1.52-6.56,3.25,3.31,3.17,6.92,4.38c3.09,1.05,6.8,1.8,10.01,2.72s5.44,2.14,7.3,1.48c2.08-.72,2.98-1.55,2.8-3.07-.45-2.17-1.02-4.31-1.69-6.42l-8.5-1.43Z"/>
    <path class="cls-8" d="M429.75,379.55s-.76,6.34-.82,7.7-6.19,1.8-7.36-.69l-.19-7.75,8.37,.75Z"/>
    <path class="cls-16" d="M423.57,383.44l2.19,9.63s.2,1.17-4.8,1.92-12.87-2.63-14.21-3.31-1.5-2.05,3.43-1.78,6.66,.29,6.66,.29l-1.6-4.26,8.34-2.49Z"/>
    <path class="cls-8" d="M433.88,223.62l3.47-.97s7.25,22.95,8.05,25.16,1.71,4.56,.15,7.29c-1.86,3.25-11.67,16.32-11.67,16.32l-6.23-6.09,7.07-12.95-6.26-12.65,5.41-16.12Z"/>
    <path class="cls-5" d="M398.26,193.82c-1.65-3.1-1.6-6.84,.15-9.89,3.45-6.41,11.15-9.52,20.32-8.34,4.24,.56,9.25,4.08,11.98,9.34,3.02,5.84,3.31,17.59,4.08,22.03l-36.53-13.15Z"/>
    <path class="cls-16" d="M398.01,196.34s-2.18,4.15-1.8,4.53c.56,.33,1.18,.56,1.82,.68l-.03-5.21Z"/>
    <path class="cls-16" d="M404.62,183.22c-2.37,1.54-6.45,4.37-6.62,13.68-.19,9.52,1.17,12.66,2.58,13.76,.95,.75,6.54,.37,8.94-.19s9.29-3.97,11.78-9.15c2.92-6.09,2.33-14.96-2.01-17.68-4.49-2.65-10.03-2.81-14.66-.42Z"/>
    <path class="cls-14" d="M429.75,254.66c4.19,6.53,8.16,12.24,9.03,19.61,1.8,15.49-4.08,33.2-5.35,44.67,2.38,3.26,3.75,7.15,3.94,11.18,0,4.75-7.63,49.43-7.63,49.43,0,0-5.55,1.69-8.37-.75l-5.24-82.19,2.72-10.01,10.88-31.94Z"/>
    <path class="cls-11" d="M429.75,254.66c4.19,6.53,8.16,12.24,9.03,19.61,1.8,15.49-4.08,33.2-5.35,44.67,2.38,3.26,3.75,7.15,3.94,11.18,0,4.75-7.63,49.43-7.63,49.43,0,0-5.55,1.69-8.37-.75l-5.24-82.19,2.72-10.01,10.88-31.94Z"/>
    <path class="cls-14" d="M416.14,296.61l2.72-10.01c5.21-1.37,10.23-3.37,14.96-5.94,0,0-2.83,5.16-10.96,7.98l-4.2,12.85-.35,29.45-2.16-34.33Z"/>
    <path class="cls-10" d="M416.14,296.61l2.72-10.01c5.21-1.37,10.23-3.37,14.96-5.94,0,0-2.83,5.16-10.96,7.98l-4.2,12.85-.35,29.45-2.16-34.33Z"/>
    <path class="cls-14" d="M429.75,254.66c2.24,3.67,7.6,9.93,6.46,15.95-1.36,7.29-5.3,12.42-17.3,15.98l-11.26,40.81s5.86,5.44,7.66,10.7,8.27,45.36,8.27,45.36c0,0-2.01,3.28-8.34,2.49,0,0-22.05-50.33-23.6-53.6-1.88-3.32-2.54-7.19-1.86-10.95,.69-5.28,8.16-63.04,8.16-63.04l31.81-3.7Z"/>
    <path class="cls-11" d="M429.75,254.66c2.24,3.67,7.6,9.93,6.46,15.95-1.36,7.29-5.3,12.42-17.3,15.98l-11.26,40.81s5.86,5.44,7.66,10.7,8.27,45.36,8.27,45.36c0,0-2.01,3.28-8.34,2.49,0,0-22.05-50.33-23.6-53.6-1.88-3.32-2.54-7.19-1.86-10.95,.69-5.28,8.16-63.04,8.16-63.04l31.81-3.7Z"/>
    <path class="cls-14" d="M433.88,223.62l-28.02-4.53c-.57-.12-1.5-.35-2.72-.67h0s-1.2,17.57-8.39,21.6h0c.18,.84,.33,1.78,.46,2.86,.42,3.37,2.72,15.42,2.72,15.42,0,0,10.88,5.26,19.82,2.72,8.94-2.54,11.96-6.34,11.96-6.34l-4.47-7.29c1.25-3.03,6.88-15.22,8.65-23.78Z"/>
    <path class="cls-3" d="M433.88,223.62l-28.02-4.53c-.57-.12-1.5-.35-2.72-.67h0s-1.2,17.57-8.39,21.6h0c.18,.84,.33,1.78,.46,2.86,.42,3.37,2.72,15.42,2.72,15.42,0,0,10.88,5.26,19.82,2.72,8.94-2.54,11.96-6.34,11.96-6.34l-4.47-7.29c1.25-3.03,6.88-15.22,8.65-23.78Z"/>
    <path class="cls-14" d="M426.5,244.5c-3.72,2.23-7.62,4.16-11.66,5.75,3.66-.07,7.25-1.06,10.43-2.88l1.22-2.87Z"/>
    <path class="cls-5" d="M403.93,183.69s-1.36,8.84,1.85,14.04c0,0,1.2-3.52,4.18-2.86s3.14,4.6,1.05,6.8c-1.09,1.26-2.8,1.79-4.41,1.36,0,0-.48,6.39-.73,11.75s-1.67,17.04,4.35,21.76,21.15,6.38,28.24-3.52c3.94-5.51-1.29-15.25-3.73-26.17-2.24-10.04-3.51-24.92-14.16-27.31s-16.63,4.15-16.63,4.15Z"/>
  </g>
  <g id="freepik--Cloud--inject-39">
    <path class="cls-13" d="M443.01,62.89l-2.24,1.36c.19-.8,.29-1.61,.31-2.43,0-4.56-3.2-6.39-7.14-4.08-1.2,.72-2.27,1.64-3.17,2.72h0c0-6.12-4.3-8.61-9.6-5.55-5.67,3.7-9.24,9.88-9.6,16.63v.91c-1.37-.17-2.75,.15-3.9,.9-4.22,2.75-6.87,7.34-7.14,12.36,0,.58,.06,1.15,.18,1.71l-1.2,.69c-3.25,1.88-5.89,5.54-5.89,8.16s2.64,3.25,5.89,1.36l43.53-25.1c3.25-1.88,5.89-5.54,5.89-8.16s-2.65-3.39-5.9-1.5Z"/>
  </g>
</svg>